<svg xmlns="http://www.w3.org/2000/svg" width="167" height="56" fill="none" viewBox="0 0 167 56">
  <g clip-path="url(#a)">
    <path fill="#FB2444" d="M126.553 27.55h-76.1V0h76.09c1.86 0 3.66.36 5.36 1.08 1.64.69 3.11 1.69 4.38 2.95 1.26 1.26 2.26 2.74 2.95 4.38.72 1.7 1.08 3.5 1.08 5.36 0 1.86-.36 3.66-1.08 5.36-.69 1.64-1.69 3.11-2.95 4.38a13.698 13.698 0 0 1-4.38 2.95c-1.7.72-3.5 1.08-5.36 1.08l.01.01Zm-74.02-2.07h74.02c6.45 0 11.7-5.25 11.7-11.7 0-6.45-5.25-11.7-11.7-11.7h-74.02v23.4Zm113.36 10.492c-.69-1.64-1.69-3.11-2.95-4.38a13.698 13.698 0 0 0-4.38-2.95c-1.7-.72-3.5-1.08-5.36-1.08H50.453v27.55h102.74c1.86 0 3.66-.36 5.36-1.08 1.64-.69 3.11-1.69 4.38-2.95 1.26-1.26 2.26-2.74 2.95-4.38.72-1.7 1.08-3.5 1.08-5.36 0-1.86-.36-3.66-1.08-5.36l.01-.01Z"/>
    <path fill="#333" d="M21.32 38.36a15.167 15.167 0 0 1-4.48-10.8c0-4.08 1.59-7.91 4.48-10.8a1.388 1.388 0 0 0-.98-2.37c-.37 0-.72.14-.98.41a17.983 17.983 0 0 0-3.97 5.97 18.062 18.062 0 0 0 0 13.56c.91 2.24 2.24 4.25 3.97 5.97.26.26.61.41.98.41s.72-.14.98-.41c.54-.54.54-1.42 0-1.96v.02Z"/>
    <path fill="#333" d="M16.05 42.517c-4-4-6.2-9.31-6.2-14.96s2.2-10.96 6.2-14.96a1.388 1.388 0 0 0-.98-2.37c-.37 0-.72.14-.98.41a24.015 24.015 0 0 0-3.07 3.76 23.34 23.34 0 0 0-2.19 4.17c-.58 1.43-1.02 2.92-1.32 4.44-.29 1.5-.44 3.04-.44 4.57 0 1.53.15 3.07.44 4.57.29 1.52.74 3.01 1.32 4.44.59 1.45 1.33 2.86 2.19 4.17.89 1.34 1.92 2.61 3.07 3.76.26.26.61.41.98.41s.72-.14.98-.41c.26-.27.41-.61.41-.98s-.14-.72-.41-.98v-.04Z"/>
    <path fill="#333" d="M11.09 47.6c0-.37-.14-.72-.41-.98-5.1-5.1-7.91-11.87-7.91-19.07 0-7.2 2.81-13.97 7.91-19.07a1.388 1.388 0 0 0-.98-2.37c-.37 0-.72.14-.98.41-1.43 1.43-2.71 3-3.81 4.67a29.779 29.779 0 0 0-2.73 5.18 30.1 30.1 0 0 0-1.64 5.51 30.108 30.108 0 0 0 0 11.36 30.1 30.1 0 0 0 1.64 5.51c.73 1.81 1.65 3.55 2.73 5.18a30.37 30.37 0 0 0 3.81 4.67c.26.26.61.41.98.41s.72-.14.98-.41c.26-.26.41-.61.41-.98v-.02Zm64.352-30.77a27.506 27.506 0 0 0-5.9-8.76 27.342 27.342 0 0 0-8.76-5.9C57.382.73 53.772 0 50.052 0c-3.72 0-7.33.73-10.73 2.17a27.506 27.506 0 0 0-8.76 5.9 27.342 27.342 0 0 0-5.9 8.76c-1.44 3.4-2.17 7.01-2.17 10.73 0 3.72.73 7.33 2.17 10.73 1.39 3.28 3.37 6.23 5.9 8.76 2.53 2.53 5.48 4.52 8.76 5.9 3.4 1.44 7.01 2.17 10.73 2.17 3.72 0 7.33-.73 10.73-2.17 3.28-1.39 6.23-3.37 8.76-5.9 2.53-2.53 4.52-5.48 5.9-8.76 1.44-3.4 2.17-7.01 2.17-10.73 0-3.72-.73-7.33-2.17-10.73Z"/>
    <path fill="#fff" d="m61.306 26.612-17.54-10.12v20.24l17.54-10.12Z"/>
    <path fill="#EEE" d="M94.626 36.841a.211.211 0 0 1-.068.153.184.184 0 0 1-.136.051h-5.338c-.057 0-.085.029-.085.085v2.091c0 .057.028.085.085.085H92.5c.056 0 .102.023.136.068.045.034.068.08.068.136v1.99a.211.211 0 0 1-.068.152.184.184 0 0 1-.136.051h-3.417c-.057 0-.085.029-.085.085v2.244c0 .057.028.085.085.085h5.338c.056 0 .102.023.136.068.045.034.068.08.068.136v2.006a.211.211 0 0 1-.068.153.184.184 0 0 1-.136.051H86.38a.248.248 0 0 1-.153-.05.248.248 0 0 1-.051-.154V34.835c0-.056.017-.102.05-.136a.211.211 0 0 1 .154-.068h8.04c.057 0 .103.023.137.068.045.034.068.08.068.136v2.006Zm8.111-2.006c0-.056.017-.102.051-.136a.214.214 0 0 1 .153-.068h2.414c.057 0 .102.023.136.068a.16.16 0 0 1 .068.136v11.492a.209.209 0 0 1-.068.153.183.183 0 0 1-.136.051h-2.312c-.113 0-.192-.045-.238-.136l-3.91-6.494c-.022-.034-.045-.045-.068-.034-.022 0-.034.023-.034.068l.017 6.392a.211.211 0 0 1-.068.153.184.184 0 0 1-.136.051h-2.414a.248.248 0 0 1-.153-.05.248.248 0 0 1-.05-.154V34.835c0-.056.016-.102.05-.136a.211.211 0 0 1 .153-.068h2.33c.113 0 .192.046.237.136l3.893 6.477c.023.034.046.051.068.051.023-.011.034-.04.034-.085l-.017-6.375Zm11.157 11.696c-.113 0-.187-.056-.221-.17l-3.434-11.492-.017-.068c0-.113.063-.17.187-.17h2.601c.125 0 .204.057.238.17l1.955 7.735c.012.034.029.051.051.051.023 0 .04-.017.051-.05l1.921-7.736c.034-.113.114-.17.238-.17h2.55c.068 0 .119.023.153.068.034.046.04.102.017.17l-3.485 11.492c-.034.114-.107.17-.221.17h-2.584Zm7.732 0a.247.247 0 0 1-.153-.05.248.248 0 0 1-.051-.154V34.835c0-.056.017-.102.051-.136a.21.21 0 0 1 .153-.068h2.414c.057 0 .102.023.136.068.045.034.068.08.068.136v11.492a.213.213 0 0 1-.068.153.183.183 0 0 1-.136.051h-2.414Zm7.542 0c-.113 0-.187-.056-.221-.17l-3.434-11.492-.017-.068c0-.113.062-.17.187-.17h2.601c.125 0 .204.057.238.17l1.955 7.735c.011.034.028.051.051.051.023 0 .04-.017.051-.05L132.5 34.8c.034-.113.113-.17.238-.17h2.55c.068 0 .119.023.153.068.034.046.04.102.017.17l-3.485 11.492c-.034.114-.108.17-.221.17h-2.584Zm11.333.187c-.918 0-1.728-.181-2.431-.544a4.054 4.054 0 0 1-1.615-1.564c-.385-.668-.578-1.445-.578-2.329v-3.4c0-.861.193-1.62.578-2.278a3.941 3.941 0 0 1 1.615-1.547c.703-.374 1.513-.56 2.431-.56.918 0 1.729.186 2.431.56a3.907 3.907 0 0 1 1.632 1.547c.386.658.578 1.417.578 2.278v3.4c0 .884-.192 1.66-.578 2.33a4.016 4.016 0 0 1-1.632 1.563c-.702.363-1.513.544-2.431.544Zm0-2.414c.544 0 .981-.175 1.309-.527.34-.351.51-.821.51-1.41v-3.52c0-.578-.17-1.042-.51-1.394-.328-.362-.765-.544-1.309-.544-.532 0-.969.182-1.309.544-.328.352-.493.816-.493 1.394v3.52c0 .589.165 1.059.493 1.41.34.352.777.527 1.309.527Z"/>
    <path fill="#333" d="M100.693 6.942a.18.18 0 0 1 .152.076.18.18 0 0 1 .076.152v2.261c0 .064-.025.12-.076.171a.204.204 0 0 1-.152.057h-3.325c-.063 0-.095.032-.095.095v10.26c0 .064-.025.12-.076.171a.205.205 0 0 1-.152.057h-2.698a.278.278 0 0 1-.17-.057.278.278 0 0 1-.058-.17V9.754c0-.064-.031-.096-.095-.096h-3.21a.278.278 0 0 1-.172-.057.278.278 0 0 1-.057-.17V7.17a.21.21 0 0 1 .057-.152.236.236 0 0 1 .171-.076h9.88Zm5.222 13.3c-.126 0-.209-.063-.247-.19L101.83 7.208l-.019-.076c0-.126.07-.19.209-.19h2.907c.14 0 .228.064.266.19l2.185 8.645c.013.038.032.057.057.057.026 0 .045-.019.057-.057l2.147-8.645c.038-.126.127-.19.266-.19h2.85c.076 0 .133.026.171.076.038.05.045.114.019.19l-3.895 12.844c-.038.127-.12.19-.247.19h-2.888Z"/>
  </g>
  <defs>
    <clipPath id="a">
      <path fill="#fff" d="M0 0h166.97v55.11H0z"/>
    </clipPath>
  </defs>
</svg>
